<svg xmlns="http://www.w3.org/2000/svg" viewBox="0 0 1200 820" role="img" aria-labelledby="title desc">
  <title id="title">AI learning classroom illustration</title>
  <desc id="desc">A bright classroom scene with students, a screen, posters, music notes, and creative AI learning elements.</desc>
  <defs>
    <linearGradient id="wall" x1="0" x2="1" y1="0" y2="1">
      <stop offset="0" stop-color="#f7fffb"/>
      <stop offset="1" stop-color="#dff4ff"/>
    </linearGradient>
    <filter id="softShadow" x="-20%" y="-20%" width="140%" height="140%">
      <feDropShadow dx="0" dy="18" stdDeviation="20" flood-color="#18363f" flood-opacity=".16"/>
    </filter>
  </defs>

  <rect width="1200" height="820" rx="48" fill="url(#wall)"/>
  <rect x="72" y="92" width="1056" height="604" rx="28" fill="#ffffff" stroke="#c9dfe2" stroke-width="4" filter="url(#softShadow)"/>
  <rect x="112" y="132" width="608" height="340" rx="22" fill="#20353b"/>
  <rect x="142" y="162" width="548" height="280" rx="16" fill="#e8fbf5"/>

  <circle cx="240" cy="255" r="58" fill="#2e8c7a"/>
  <path d="M214 256c22-46 58-46 80 0-24 23-56 23-80 0z" fill="#ffffff" opacity=".92"/>
  <circle cx="232" cy="242" r="7" fill="#20353b"/>
  <circle cx="276" cy="242" r="7" fill="#20353b"/>
  <path d="M235 273c17 15 36 15 53 0" fill="none" stroke="#20353b" stroke-width="8" stroke-linecap="round"/>

  <rect x="364" y="190" width="260" height="34" rx="17" fill="#2b78bd"/>
  <rect x="364" y="246" width="220" height="24" rx="12" fill="#f6c95f"/>
  <rect x="364" y="292" width="278" height="24" rx="12" fill="#e76f3c"/>
  <rect x="364" y="338" width="190" height="24" rx="12" fill="#8abf54"/>
  <path d="M166 394h490" stroke="#bfd7d9" stroke-width="8" stroke-linecap="round"/>

  <rect x="772" y="134" width="278" height="166" rx="20" fill="#fff6d8" stroke="#edd184" stroke-width="4"/>
  <path d="M822 246c34-60 74-66 120-17 28-49 55-54 86-17" fill="none" stroke="#e76f3c" stroke-width="10" stroke-linecap="round"/>
  <circle cx="832" cy="184" r="22" fill="#f6c95f"/>
  <rect x="792" y="324" width="238" height="82" rx="18" fill="#e9e6ff" stroke="#c9c1ff" stroke-width="4"/>
  <circle cx="834" cy="366" r="18" fill="#7465c8"/>
  <circle cx="894" cy="366" r="18" fill="#d95f8d"/>
  <circle cx="954" cy="366" r="18" fill="#2b78bd"/>
  <path d="M1012 355v44c0 20-38 20-38 0 0-16 22-22 38-12" fill="none" stroke="#20353b" stroke-width="8" stroke-linecap="round"/>

  <rect x="146" y="548" width="908" height="34" rx="17" fill="#b9d4d6"/>
  <rect x="196" y="574" width="130" height="88" rx="16" fill="#f6c95f"/>
  <rect x="840" y="574" width="130" height="88" rx="16" fill="#2e8c7a"/>

  <g transform="translate(322 490)">
    <circle cx="78" cy="70" r="48" fill="#f2b28c"/>
    <path d="M34 67c8-56 78-70 98-18 7 17 4 31 4 31-41 4-72-10-102-13z" fill="#50352d"/>
    <rect x="22" y="118" width="116" height="116" rx="28" fill="#2b78bd"/>
    <path d="M30 158h100" stroke="#ffffff" stroke-width="10" stroke-linecap="round" opacity=".8"/>
    <circle cx="60" cy="72" r="6" fill="#20353b"/>
    <circle cx="96" cy="72" r="6" fill="#20353b"/>
    <path d="M62 93c12 8 25 8 37 0" fill="none" stroke="#20353b" stroke-width="6" stroke-linecap="round"/>
  </g>

  <g transform="translate(578 488)">
    <circle cx="78" cy="70" r="48" fill="#ffc69f"/>
    <path d="M28 64c10-55 83-71 103-15 6 16 3 30 3 30-28-24-64-19-106-15z" fill="#624232"/>
    <rect x="20" y="118" width="120" height="116" rx="28" fill="#e76f3c"/>
    <path d="M50 158h60" stroke="#ffffff" stroke-width="10" stroke-linecap="round" opacity=".8"/>
    <circle cx="60" cy="72" r="6" fill="#20353b"/>
    <circle cx="96" cy="72" r="6" fill="#20353b"/>
    <path d="M62 94c12 9 25 9 37 0" fill="none" stroke="#20353b" stroke-width="6" stroke-linecap="round"/>
  </g>

  <g transform="translate(92 478)">
    <rect x="0" y="38" width="176" height="122" rx="20" fill="#ffffff" stroke="#cbdfe0" stroke-width="4"/>
    <rect x="26" y="66" width="124" height="18" rx="9" fill="#8abf54"/>
    <rect x="26" y="102" width="82" height="18" rx="9" fill="#2b78bd"/>
    <rect x="26" y="136" width="112" height="18" rx="9" fill="#d95f8d"/>
  </g>

  <g transform="translate(940 466)">
    <rect x="0" y="0" width="150" height="150" rx="26" fill="#ffffff" stroke="#cbdfe0" stroke-width="4"/>
    <path d="M42 102V48h60v54" fill="none" stroke="#2e8c7a" stroke-width="10" stroke-linecap="round" stroke-linejoin="round"/>
    <circle cx="44" cy="106" r="18" fill="#f6c95f"/>
    <circle cx="100" cy="106" r="18" fill="#f6c95f"/>
  </g>

  <path d="M96 740h1008" stroke="#d5e5e6" stroke-width="8" stroke-linecap="round"/>
  <circle cx="1046" cy="88" r="22" fill="#e76f3c"/>
  <circle cx="1102" cy="128" r="16" fill="#f6c95f"/>
  <circle cx="92" cy="102" r="15" fill="#2e8c7a"/>
  <path d="M1000 228l36 20-36 20-36-20z" fill="#d95f8d"/>
</svg>
